<mxfile host="app.diagrams.net" modified="2021-12-15T21:12:06.314Z" agent="5.0 (Macintosh; Intel Mac OS X 10_15_4) AppleWebKit/537.36 (KHTML, like Gecko) Chrome/96.0.4664.55 Safari/537.36" etag="iJqVGUA6StFmD2eT7m2m" version="13.10.9" type="github">
  <diagram id="uMmYlRdymziWBklONeEX" name="Page-1">
    <mxGraphModel dx="765" dy="566" grid="1" gridSize="10" guides="1" tooltips="1" connect="1" arrows="1" fold="1" page="1" pageScale="1" pageWidth="827" pageHeight="1169" math="0" shadow="0">
      <root>
        <mxCell id="0" />
        <mxCell id="1" parent="0" />
        <mxCell id="6HTU2ilgzphinobMCIUa-11" style="edgeStyle=orthogonalEdgeStyle;rounded=0;orthogonalLoop=1;jettySize=auto;html=1;entryX=0.5;entryY=0;entryDx=0;entryDy=0;" edge="1" parent="1" source="1D9TrF4b-mN48vliY74l-1" target="6HTU2ilgzphinobMCIUa-9">
          <mxGeometry relative="1" as="geometry" />
        </mxCell>
        <mxCell id="6HTU2ilgzphinobMCIUa-13" value="" style="edgeStyle=orthogonalEdgeStyle;rounded=0;orthogonalLoop=1;jettySize=auto;html=1;" edge="1" parent="1" source="1D9TrF4b-mN48vliY74l-1" target="6HTU2ilgzphinobMCIUa-12">
          <mxGeometry relative="1" as="geometry" />
        </mxCell>
        <mxCell id="1D9TrF4b-mN48vliY74l-1" value="&lt;b&gt;IMAGE&lt;/b&gt;" style="rounded=1;whiteSpace=wrap;html=1;" parent="1" vertex="1">
          <mxGeometry x="280" y="40" width="120" height="40" as="geometry" />
        </mxCell>
        <mxCell id="6HTU2ilgzphinobMCIUa-9" value="&lt;span&gt;Image Object&amp;nbsp;&lt;/span&gt;&lt;br&gt;&lt;span&gt;Recognition&lt;/span&gt;" style="shape=process;whiteSpace=wrap;html=1;backgroundOutline=1;rounded=1;" vertex="1" parent="1">
          <mxGeometry x="120" y="140" width="120" height="60" as="geometry" />
        </mxCell>
        <mxCell id="6HTU2ilgzphinobMCIUa-12" value="&lt;span&gt;Face Emotion Recognition&lt;/span&gt;" style="shape=process;whiteSpace=wrap;html=1;backgroundOutline=1;rounded=1;" vertex="1" parent="1">
          <mxGeometry x="440" y="140" width="120" height="60" as="geometry" />
        </mxCell>
        <mxCell id="6HTU2ilgzphinobMCIUa-16" value="&lt;i&gt;Is there a face ?&amp;nbsp;&lt;/i&gt;" style="text;html=1;align=center;verticalAlign=middle;resizable=0;points=[];autosize=1;" vertex="1" parent="1">
          <mxGeometry x="510" y="80" width="100" height="20" as="geometry" />
        </mxCell>
      </root>
    </mxGraphModel>
  </diagram>
</mxfile>
